PathFileType	4	(X/Y/Z)	C:\Users\italobelli\Desktop\GitHub\PTbot_officialCBL\Personal_Results\ABD02_noisy1.trc
DataRate	CameraRate	NumFrames	NumMarkers	Units	OrigDataRate	OrigDataStartFrame	OrigNumFrames
106.125000	106.125000	21	9	m	106.125000	1	850
Frame#	Time		gu		centelbow		EpL		centpxt8		centijc7		ij		ts		aa		ai
			X1	Y1	Z1	X2	Y2	Z2	X3	Y3	Z3	X4	Y4	Z4	X5	Y5	Z5	X6	Y6	Z6	X7	Y7	Z7	X8	Y8	Z8	X9	Y9	Z9

1	0	-0.096891	-0.00883	0.16661	-0.13982	-0.2506	0.18895	-0.13845	-0.24399	0.22048	-0.046816	-0.15316	-0.008669	-0.046816	0.031938	-0.008669	0	0	0	-0.13415	0.027071	0.040981	-0.12853	0.027562	0.16012	-0.14898	-0.08529	0.047361
2	0.0094229	-0.0969	-0.0088316	0.1666	-0.13995	-0.25047	0.18892	-0.1386	-0.24385	0.22045	-0.046816	-0.15316	-0.008669	-0.046816	0.031938	-0.008669	0	0	0	-0.13416	0.027069	0.040982	-0.12855	0.02756	0.16012	-0.149	-0.085291	0.047361
3	0.018846	-0.09691	-0.008833	0.16659	-0.14009	-0.25034	0.18889	-0.13874	-0.24372	0.22042	-0.046816	-0.15316	-0.008669	-0.046816	0.031938	-0.008669	0	0	0	-0.13417	0.027068	0.040983	-0.12857	0.027559	0.16012	-0.14901	-0.085291	0.04736
4	0.028269	-0.096919	-0.0088345	0.16658	-0.14022	-0.25021	0.18886	-0.13889	-0.24359	0.22039	-0.046816	-0.15316	-0.008669	-0.046816	0.031938	-0.008669	0	0	0	-0.13418	0.027067	0.040983	-0.1286	0.027557	0.16012	-0.14903	-0.085292	0.04736
5	0.037691	-0.096928	-0.0088358	0.16657	-0.14035	-0.25008	0.18883	-0.13903	-0.24346	0.22036	-0.046816	-0.15316	-0.008669	-0.046816	0.031938	-0.008669	0	0	0	-0.13419	0.027065	0.040984	-0.12862	0.027555	0.16012	-0.14904	-0.085293	0.047359
6	0.047114	-0.096937	-0.0088371	0.16656	-0.14048	-0.24995	0.18881	-0.13917	-0.24333	0.22034	-0.046816	-0.15316	-0.008669	-0.046816	0.031938	-0.008669	0	0	0	-0.1342	0.027064	0.040984	-0.12864	0.027554	0.16012	-0.14906	-0.085293	0.047359
7	0.056537	-0.096946	-0.0088383	0.16655	-0.14061	-0.24982	0.18879	-0.1393	-0.24321	0.22032	-0.046816	-0.15316	-0.008669	-0.046816	0.031938	-0.008669	0	0	0	-0.13421	0.027062	0.040985	-0.12866	0.027552	0.16013	-0.14908	-0.085294	0.047358
8	0.06596	-0.096955	-0.0088395	0.16655	-0.14073	-0.2497	0.18878	-0.13944	-0.24308	0.22031	-0.046816	-0.15316	-0.008669	-0.046816	0.031938	-0.008669	0	0	0	-0.13422	0.027061	0.040985	-0.12868	0.027551	0.16013	-0.14909	-0.085295	0.047357
9	0.075383	-0.096963	-0.0088406	0.16654	-0.14086	-0.24958	0.18876	-0.13958	-0.24296	0.22029	-0.046816	-0.15316	-0.008669	-0.046816	0.031938	-0.008669	0	0	0	-0.13423	0.027059	0.040986	-0.1287	0.027549	0.16013	-0.14911	-0.085295	0.047356
10	0.084806	-0.096972	-0.0088416	0.16653	-0.14098	-0.24946	0.18875	-0.13971	-0.24284	0.22028	-0.046816	-0.15316	-0.008669	-0.046816	0.031938	-0.008669	0	0	0	-0.13424	0.027058	0.040986	-0.12872	0.027547	0.16013	-0.14912	-0.085296	0.047355
11	0.094229	-0.09698	-0.0088426	0.16652	-0.1411	-0.24934	0.18874	-0.13984	-0.24272	0.22027	-0.046816	-0.15316	-0.008669	-0.046816	0.031938	-0.008669	0	0	0	-0.13424	0.027057	0.040986	-0.12874	0.027546	0.16013	-0.14914	-0.085297	0.047354
12	0.10365	-0.096989	-0.0088435	0.16651	-0.14122	-0.24922	0.18874	-0.13997	-0.2426	0.22026	-0.046816	-0.15316	-0.008669	-0.046816	0.031938	-0.008669	0	0	0	-0.13425	0.027055	0.040986	-0.12876	0.027544	0.16013	-0.14915	-0.085297	0.047353
13	0.11307	-0.096997	-0.0088444	0.16651	-0.14134	-0.2491	0.18873	-0.1401	-0.24249	0.22026	-0.046816	-0.15316	-0.008669	-0.046816	0.031938	-0.008669	0	0	0	-0.13426	0.027054	0.040986	-0.12878	0.027543	0.16013	-0.14917	-0.085298	0.047352
14	0.1225	-0.097005	-0.0088452	0.1665	-0.14145	-0.24899	0.18873	-0.14022	-0.24238	0.22026	-0.046816	-0.15316	-0.008669	-0.046816	0.031938	-0.008669	0	0	0	-0.13427	0.027053	0.040986	-0.1288	0.027541	0.16013	-0.14918	-0.085299	0.047351
15	0.13192	-0.097014	-0.008846	0.16649	-0.14157	-0.24887	0.18873	-0.14035	-0.24226	0.22026	-0.046816	-0.15316	-0.008669	-0.046816	0.031938	-0.008669	0	0	0	-0.13428	0.027051	0.040986	-0.12882	0.02754	0.16013	-0.14919	-0.085299	0.047349
16	0.14134	-0.097022	-0.0088467	0.16649	-0.14168	-0.24876	0.18873	-0.14047	-0.24215	0.22026	-0.046816	-0.15316	-0.008669	-0.046816	0.031938	-0.008669	0	0	0	-0.13428	0.02705	0.040986	-0.12884	0.027538	0.16013	-0.14921	-0.0853	0.047348
17	0.15077	-0.09703	-0.0088474	0.16648	-0.14179	-0.24865	0.18873	-0.14059	-0.24205	0.22026	-0.046816	-0.15316	-0.008669	-0.046816	0.031938	-0.008669	0	0	0	-0.13429	0.027049	0.040986	-0.12886	0.027537	0.16013	-0.14922	-0.085301	0.047347
18	0.16019	-0.097038	-0.008848	0.16647	-0.1419	-0.24855	0.18874	-0.14071	-0.24194	0.22026	-0.046816	-0.15316	-0.008669	-0.046816	0.031938	-0.008669	0	0	0	-0.1343	0.027048	0.040985	-0.12888	0.027536	0.16013	-0.14923	-0.085301	0.047345
19	0.16961	-0.097045	-0.0088487	0.16647	-0.14201	-0.24844	0.18875	-0.14083	-0.24183	0.22027	-0.046816	-0.15316	-0.008669	-0.046816	0.031938	-0.008669	0	0	0	-0.13431	0.027046	0.040985	-0.1289	0.027534	0.16013	-0.14925	-0.085302	0.047344
20	0.17903	-0.097053	-0.0088492	0.16646	-0.14212	-0.24833	0.18875	-0.14094	-0.24173	0.22028	-0.046816	-0.15316	-0.008669	-0.046816	0.031938	-0.008669	0	0	0	-0.13431	0.027045	0.040985	-0.12892	0.027533	0.16013	-0.14926	-0.085302	0.047342
21	0.18846	-0.097061	-0.0088498	0.16646	-0.14223	-0.24823	0.18877	-0.14106	-0.24163	0.22029	-0.046816	-0.15316	-0.008669	-0.046816	0.031938	-0.008669	0	0	0	-0.13432	0.027044	0.040984	-0.12893	0.027531	0.16013	-0.14927	-0.085303	0.04734
